<?xml version="1.0" encoding="UTF-8"?>
<svg id="Layer_1" data-name="Layer 1" xmlns="http://www.w3.org/2000/svg" viewBox="0 0 178.26 84.88">
  <g id="Layer_1-2" data-name="Layer 1">
    <g>
      <path d="M153.73,32.13c-.03-5.34-4.07-9.65-9.02-9.62-2.65.01-5.02,1.27-6.65,3.24-1.69-2.07-4.16-3.39-6.92-3.37-5.05.03-9.12,4.47-9.08,9.91.01,2.92,1.21,5.54,3.1,7.34l-.03.04,12.69,13.54.16-.17.16.17,13.39-14.62-.02-.02c1.4-1.71,2.25-3.97,2.23-6.44h0Z" fill="#9c3b33" stroke="#9c3b33" stroke-miterlimit="10" stroke-width="3"/>
      <polygon points="136.22 7.33 138.11 4.14 174.18 24.44 172.29 27.63 136.22 7.33" fill="#9c3b33" stroke="#9c3b33" stroke-miterlimit="10" stroke-width="3"/>
      <polygon points="101.76 24.26 138.03 3.85 140.03 7.23 103.76 27.63 101.76 24.26" fill="#9c3b33" stroke="#9c3b33" stroke-miterlimit="10" stroke-width="3"/>
      <polygon points="135.83 5.79 138.27 3.93 140.25 6.39 137.81 8.26 135.83 5.79" fill="#9c3b33" stroke="#9c3b33" stroke-miterlimit="10" stroke-width="3"/>
    </g>
  </g>
  <g id="Layer_2" data-name="Layer 2">
    <g isolation="isolate">
      <text transform="translate(4.83 42.98) scale(.86 1)" fill="#8b332c" font-family="Sirenia-Black, Sirenia" font-size="41.56" font-weight="800" isolation="isolate"><tspan x="0" y="0" letter-spacing="-.03em">D</tspan><tspan x="25.85" y="0" letter-spacing="-.09em">A</tspan><tspan x="49.46" y="0" letter-spacing="0em">T</tspan><tspan x="76.68" y="0">E</tspan></text>
      <text transform="translate(34.22 72.56) scale(.86 1)" fill="#8b332c" font-family="Sirenia-Black, Sirenia" font-size="41.56" font-weight="800" isolation="isolate"><tspan x="0" y="0" letter-spacing="-.03em">D</tspan><tspan x="25.85" y="0" letter-spacing="-.09em">A</tspan><tspan x="49.46" y="0" letter-spacing="0em">T</tspan><tspan x="76.68" y="0">E</tspan></text>
      <text transform="translate(5.01 70.53) scale(.96 1)" font-family="SignPainter-HouseScriptSemibold, SignPainter" font-size="36.51" font-weight="600"><tspan x="0" y="0">by</tspan></text>
    </g>
  </g>
</svg>